<?xml version="1.0" encoding="UTF-8" standalone="no"?>
<!-- Created with Inkscape (http://www.inkscape.org/) -->
<svg
   xmlns:svg="http://www.w3.org/2000/svg"
   xmlns="http://www.w3.org/2000/svg"
   version="1.0"
   width="600"
   height="600"
   id="svg2">
  <defs
     id="defs4" />
  <path
     d="M 299.44,300.34 C 299.44,449.79 299.44,524.51 299.44,561.88 C 299.44,580.56 299.44,589.89 299.44,594.56 C 299.44,596.9 299.44,598.07 299.44,598.66 C 299.44,598.95 299.44,599.08 299.44,599.16 C 299.44,599.19 299.44,599.21 299.44,599.22 C 299.44,599.22 299.44,599.25 299.44,599.25 L 300.56,599.25 C 300.56,599.25 300.56,599.24 300.56,300.34 L 299.44,300.34 z M 0.75,299.44 L 0.75,300.56 C 0.75,300.56 0.76,300.56 299.66,300.56 L 299.66,299.44 C 150.21,299.44 75.49,299.44 38.13,299.44 C 19.44,299.44 10.11,299.44 5.44,299.44 C 3.1,299.44 1.93,299.44 1.34,299.44 C 1.05,299.44 0.92,299.44 0.84,299.44 C 0.81,299.44 0.79,299.44 0.78,299.44 C 0.78,299.44 0.75,299.44 0.75,299.44 z M 300.34,299.44 L 300.34,300.56 C 449.79,300.56 524.51,300.56 561.88,300.56 C 580.56,300.56 589.89,300.56 594.56,300.56 C 596.9,300.56 598.07,300.56 598.66,300.56 C 598.95,300.56 599.08,300.56 599.16,300.56 C 599.19,300.56 599.21,300.56 599.22,300.56 C 599.22,300.56 599.25,300.56 599.25,300.56 L 599.25,299.44 C 599.25,299.44 599.24,299.44 300.34,299.44 z M 300.62,299.84 L 299.84,300.62 C 405.52,406.31 458.36,459.14 484.78,485.56 C 497.99,498.77 504.6,505.38 507.91,508.69 C 509.56,510.34 510.37,511.15 510.78,511.56 C 510.99,511.77 511.1,511.89 511.16,511.94 C 511.18,511.96 511.18,511.96 511.19,511.97 L 511.97,511.22 C 511.97,511.22 511.98,511.2 300.62,299.84 z M 300.59,300.19 L 299.53,300.47 C 338.21,444.82 357.55,517.01 367.22,553.09 C 372.05,571.14 374.48,580.15 375.69,584.66 C 376.29,586.91 376.6,588.03 376.75,588.59 C 376.83,588.88 376.86,589.02 376.88,589.09 C 376.88,589.13 376.9,589.15 376.91,589.16 C 376.91,589.16 377.97,588.88 377.97,588.88 C 377.97,588.88 377.95,588.9 300.59,300.19 z M 300.62,300 L 299.69,300.56 C 374.41,429.99 411.79,494.71 430.47,527.06 C 439.81,543.24 444.48,551.33 446.81,555.38 C 447.98,557.4 448.55,558.4 448.84,558.91 C 448.99,559.16 449.06,559.28 449.09,559.34 C 449.11,559.38 449.12,559.4 449.12,559.41 C 449.12,559.41 450.09,558.84 450.09,558.84 C 450.09,558.84 450.07,558.85 300.62,300 z M 300.56,299.72 L 300,300.66 C 429.43,375.38 494.14,412.76 526.5,431.44 C 542.68,440.78 550.77,445.45 554.81,447.78 C 556.83,448.95 557.84,449.52 558.34,449.81 C 558.6,449.96 558.72,450.03 558.78,450.06 C 558.81,450.08 558.84,450.09 558.84,450.09 C 558.84,450.09 559.41,449.16 559.41,449.16 C 559.41,449.16 559.41,449.17 300.56,299.72 z M 300.44,299.56 L 300.16,300.62 C 444.51,339.3 516.69,358.64 552.78,368.31 C 570.83,373.15 579.86,375.57 584.38,376.78 C 586.63,377.39 587.75,377.69 588.31,377.84 C 588.59,377.92 588.74,377.95 588.81,377.97 C 588.85,377.98 588.87,377.97 588.88,377.97 L 589.16,376.91 C 589.16,376.91 589.15,376.91 300.44,299.56 z M 299.44,0.75 C 299.44,0.75 299.44,0.75625 299.44,299.66 L 300.56,299.66 C 300.56,150.21 300.56,75.488 300.56,38.125 C 300.56,19.444 300.56,10.108 300.56,5.4375 C 300.56,3.1023 300.56,1.9275 300.56,1.3438 C 300.56,1.0519 300.56,0.91672 300.56,0.84375 C 300.56,0.80726 300.56,0.79037 300.56,0.78125 C 300.56,0.77669 300.56,0.75114 300.56,0.75 L 299.44,0.75 z M 511.22,88 C 511.22,88 511.23,88.019 299.88,299.38 L 300.62,300.12 C 406.3,194.45 459.14,141.61 485.56,115.19 C 498.77,101.98 505.39,95.396 508.69,92.094 C 510.34,90.443 511.15,89.6 511.56,89.188 C 511.77,88.981 511.89,88.895 511.94,88.844 C 511.96,88.818 511.96,88.788 511.97,88.781 L 511.22,88 z M 376.91,10.812 C 376.91,10.812 376.91,10.791 299.56,299.5 L 300.62,299.78 C 339.3,155.43 358.64,83.245 368.31,47.156 C 373.15,29.112 375.54,20.105 376.75,15.594 C 377.35,13.338 377.66,12.22 377.81,11.656 C 377.89,11.374 377.92,11.227 377.94,11.156 C 377.95,11.121 377.97,11.103 377.97,11.094 C 377.97,11.094 376.91,10.812 376.91,10.812 z M 449.12,40.562 C 449.12,40.562 449.14,40.563 299.69,299.41 L 300.62,299.97 C 375.35,170.55 412.73,105.82 431.41,73.469 C 440.75,57.291 445.41,49.201 447.75,45.156 C 448.92,43.134 449.49,42.131 449.78,41.625 C 449.93,41.372 450.03,41.251 450.06,41.188 C 450.08,41.156 450.09,41.133 450.09,41.125 C 450.09,41.125 449.12,40.562 449.12,40.562 z M 588.88,222.03 C 588.88,222.03 588.9,222.05 300.19,299.41 L 300.47,300.47 C 444.82,261.79 517.01,242.45 553.09,232.78 C 571.14,227.95 580.15,225.52 584.66,224.31 C 586.91,223.71 588.03,223.4 588.59,223.25 C 588.88,223.17 589.02,223.14 589.09,223.12 C 589.13,223.12 589.15,223.1 589.16,223.09 C 589.16,223.09 588.88,222.03 588.88,222.03 z M 558.88,149.88 C 558.88,149.88 558.87,149.89 300.03,299.34 L 300.59,300.28 C 430.01,225.56 494.71,188.21 527.06,169.53 C 543.24,160.19 551.33,155.49 555.38,153.16 C 557.4,151.99 558.4,151.42 558.91,151.12 C 559.16,150.98 559.31,150.91 559.38,150.88 C 559.41,150.86 559.4,150.85 559.41,150.84 C 559.41,150.84 559.44,150.84 559.44,150.84 L 558.88,149.88 z M 88.78,88.031 L 88.03,88.812 C 88.03,88.812 88.02,88.808 299.38,300.16 L 300.16,299.38 C 194.48,193.7 141.64,140.86 115.22,114.44 C 102.01,101.23 95.4,94.615 92.09,91.312 C 90.44,89.661 89.63,88.85 89.22,88.438 C 89.01,88.231 88.9,88.114 88.84,88.062 C 88.82,88.037 88.82,88.038 88.81,88.031 C 88.81,88.028 88.78,88.032 88.78,88.031 z M 299.38,299.84 C 193.7,405.52 140.86,458.36 114.44,484.78 C 101.23,497.99 94.62,504.57 91.31,507.88 C 89.66,509.53 88.85,510.37 88.44,510.78 C 88.23,510.99 88.11,511.1 88.06,511.16 C 88.04,511.18 88.04,511.18 88.03,511.19 L 88.81,511.97 C 88.81,511.97 88.8,511.97 300.16,300.62 L 299.38,299.84 z M 223.06,10.812 C 223.06,10.812 222,11.094 222,11.094 C 222,11.094 222.02,11.101 299.38,299.81 L 300.41,299.53 C 261.73,155.18 242.42,82.995 232.75,46.906 C 227.92,28.862 225.49,19.855 224.28,15.344 C 223.68,13.088 223.37,11.939 223.22,11.375 C 223.14,11.093 223.11,10.945 223.09,10.875 C 223.08,10.84 223.06,10.821 223.06,10.812 z M 150.84,40.562 L 149.91,41.125 C 149.91,41.125 149.89,41.126 299.34,299.97 L 300.28,299.41 C 225.56,169.98 188.21,105.29 169.53,72.938 C 160.19,56.76 155.52,48.669 153.19,44.625 C 152.02,42.603 151.42,41.599 151.12,41.094 C 150.98,40.841 150.91,40.688 150.88,40.625 C 150.86,40.593 150.85,40.602 150.84,40.594 C 150.84,40.59 150.84,40.563 150.84,40.562 z M 299.38,300.16 C 260.69,444.51 241.36,516.69 231.69,552.78 C 226.85,570.83 224.43,579.83 223.22,584.34 C 222.61,586.6 222.31,587.75 222.16,588.31 C 222.08,588.59 222.05,588.74 222.03,588.81 C 222.02,588.85 222.03,588.83 222.03,588.84 C 222.03,588.85 222.03,588.87 222.03,588.88 L 223.09,589.16 C 223.09,589.16 223.08,589.15 300.44,300.44 L 299.38,300.16 z M 299.34,300 C 224.62,429.43 187.24,494.14 168.56,526.5 C 159.22,542.68 154.55,550.77 152.22,554.81 C 151.05,556.83 150.48,557.84 150.19,558.34 C 150.04,558.6 149.97,558.72 149.94,558.78 C 149.92,558.81 149.91,558.84 149.91,558.84 L 150.84,559.41 C 150.84,559.41 150.83,559.41 300.28,300.56 L 299.34,300 z M 41.13,149.91 L 40.56,150.88 C 40.56,150.88 40.56,150.86 299.41,300.31 L 299.97,299.38 C 170.55,224.65 105.82,187.27 73.47,168.59 C 57.29,159.25 49.2,154.59 45.16,152.25 C 43.13,151.08 42.13,150.51 41.63,150.22 C 41.37,150.07 41.25,149.97 41.19,149.94 C 41.16,149.92 41.13,149.91 41.13,149.91 z M 11.09,222.03 L 10.81,223.09 C 10.81,223.09 10.82,223.09 299.53,300.44 L 299.81,299.38 C 155.46,260.7 83.28,241.39 47.19,231.72 C 29.14,226.88 20.11,224.46 15.59,223.25 C 13.34,222.65 12.22,222.34 11.66,222.19 C 11.37,222.11 11.23,222.08 11.16,222.06 C 11.12,222.05 11.1,222.03 11.09,222.03 z M 299.53,299.59 C 155.18,338.27 83,357.58 46.91,367.25 C 28.86,372.08 19.86,374.51 15.34,375.72 C 13.09,376.32 11.94,376.63 11.38,376.78 C 11.09,376.86 10.95,376.89 10.88,376.91 C 10.84,376.92 10.82,376.94 10.81,376.94 L 11.09,378 C 11.09,378 11.1,377.98 299.81,300.62 L 299.53,299.59 z M 299.44,299.69 C 170.01,374.41 105.29,411.76 72.94,430.44 C 56.76,439.78 48.67,444.45 44.63,446.78 C 42.6,447.95 41.6,448.55 41.09,448.84 C 40.84,448.99 40.72,449.06 40.66,449.09 C 40.63,449.11 40.6,449.12 40.59,449.12 L 41.16,450.06 C 41.16,450.06 41.15,450.08 300,300.62 L 299.44,299.69 z"
     id="path3999"
     style="fill:#000000;fill-opacity:1;fill-rule:evenodd;stroke:none;stroke-width:1.09628;stroke-linecap:butt;stroke-linejoin:miter;stroke-miterlimit:4;stroke-dasharray:none;stroke-dashoffset:0;stroke-opacity:1" />
  <path
     d="M 300,11.723 L 304.39,16.108 L 300,0.76 L 295.61,16.108 L 300,11.723 z M 374.6,21.53 L 377.7,26.9 L 377.44,10.941 L 369.23,24.631 L 374.6,21.53 z M 588.28,300 L 583.89,304.39 L 599.24,300 L 583.89,295.61 L 588.28,300 z M 503.85,96.146 L 503.85,102.35 L 511.6,88.394 L 497.65,96.146 L 503.85,96.146 z M 444.13,50.341 L 445.73,56.331 L 449.61,40.847 L 438.14,51.946 L 444.13,50.341 z M 578.44,225.41 L 575.34,230.78 L 589.03,222.57 L 573.07,222.31 L 578.44,225.41 z M 549.66,155.84 L 548.05,161.83 L 559.15,150.36 L 543.67,154.24 L 549.66,155.84 z M 300,588.28 L 295.61,583.89 L 300,599.24 L 304.39,583.89 L 300,588.28 z M 503.84,503.85 L 497.64,503.85 L 511.59,511.6 L 503.84,497.65 L 503.84,503.85 z M 374.59,578.44 L 369.22,575.34 L 377.43,589.03 L 377.69,573.07 L 374.59,578.44 z M 444.13,549.64 L 438.14,548.03 L 449.61,559.13 L 445.73,543.65 L 444.13,549.64 z M 549.64,444.15 L 543.65,445.75 L 559.13,449.63 L 548.03,438.16 L 549.64,444.15 z M 578.43,374.61 L 573.06,377.71 L 589.02,377.45 L 575.33,369.24 L 578.43,374.61 z M 11.723,300 L 16.108,295.61 L 0.76,300 L 16.108,304.39 L 11.723,300 z M 96.156,96.164 L 102.36,96.164 L 88.404,88.412 L 96.156,102.37 L 96.156,96.164 z M 96.165,503.83 L 96.165,497.63 L 88.413,511.58 L 102.37,503.83 L 96.165,503.83 z M 225.38,21.548 L 230.75,24.649 L 222.54,10.959 L 222.28,26.918 L 225.38,21.548 z M 155.85,50.341 L 161.84,51.946 L 150.37,40.847 L 154.25,56.331 L 155.85,50.341 z M 225.39,578.42 L 222.29,573.05 L 222.55,589.01 L 230.76,575.32 L 225.39,578.42 z M 155.85,549.64 L 154.25,543.65 L 150.37,559.13 L 161.84,548.03 L 155.85,549.64 z M 50.341,155.87 L 56.331,154.27 L 40.847,150.39 L 51.946,161.86 L 50.341,155.87 z M 21.54,225.41 L 26.91,222.31 L 10.951,222.57 L 24.641,230.78 L 21.54,225.41 z M 21.548,374.62 L 24.649,369.25 L 10.959,377.46 L 26.918,377.72 L 21.548,374.62 z M 50.364,444.12 L 51.969,438.13 L 40.87,449.6 L 56.354,445.72 L 50.364,444.12 z"
     id="path2679"
     style="fill-rule:evenodd;stroke:#000000;stroke-width:0.87702pt;marker-start:none" />
  <path
     d="M 335.36,300 C 335.36,319.53 319.53,335.36 300,335.36 C 280.48,335.36 264.65,319.53 264.65,300 C 264.65,280.47 280.48,264.65 300,264.65 C 319.53,264.65 335.36,280.47 335.36,300 z"
     id="path2160"
     style="fill:#f9f9f9;fill-opacity:1;stroke:#000000;stroke-width:4.4;stroke-linecap:butt;stroke-miterlimit:4;stroke-dasharray:none;stroke-dashoffset:0;stroke-opacity:1" />
  <text
     x="273.01782"
     y="320.24652"
     transform="scale(1.0008,0.9992)"
     id="text4071"
     xml:space="preserve"
     style="font-size:63.85033px;font-style:normal;font-variant:normal;font-weight:bold;font-stretch:normal;text-align:start;line-height:125%;writing-mode:lr-tb;text-anchor:start;fill:#000000;fill-opacity:1;stroke:none;stroke-width:1px;stroke-linecap:butt;stroke-linejoin:miter;stroke-opacity:1;font-family:Sans">+</text>
</svg>
